<?xml version="1.0" encoding="utf-8"?>
<!-- Generator: Adobe Illustrator 15.0.0, SVG Export Plug-In . SVG Version: 6.00 Build 0)  -->
<!DOCTYPE svg PUBLIC "-//W3C//DTD SVG 1.1 Basic//EN" "http://www.w3.org/Graphics/SVG/1.1/DTD/svg11-basic.dtd">
<svg version="1.1" baseProfile="basic" id="camera-slash"
	 xmlns="http://www.w3.org/2000/svg" xmlns:xlink="http://www.w3.org/1999/xlink" x="0px" y="0px" width="21.938px"
	 height="21.938px" viewBox="1.354 0.442 21.938 21.938" xml:space="preserve">
<g>
	<path d="M13.854,16.424h-2.738c-0.383,0-0.688,0.304-0.688,0.679c0,0.385,0.305,0.688,0.688,0.688h2.738
		c0.381,0,0.688-0.309,0.688-0.688C14.542,16.728,14.235,16.424,13.854,16.424z"/>
	<g>
		<g>
			<path d="M19.143,5.96C19,3.438,16.932,1.433,14.372,1.433c-2.65,0-4.792,2.146-4.792,4.795
				c0,1.351,0.553,2.559,1.445,3.43H8.506c0.656-0.732,1.07-1.683,1.07-2.742c0-2.271-1.846-4.112-4.112-4.112
				c-2.274,0-4.112,1.841-4.112,4.112c0,1.238,0.558,2.335,1.427,3.09c-0.848,0.47-1.427,1.358-1.427,2.392v5.479
				c0,0.797,0.344,1.508,0.885,2.008l1.071-0.881c-0.354-0.248-0.586-0.658-0.586-1.127v-5.479c0-0.754,0.614-1.371,1.369-1.371
				h8.902l1.69-1.393c-0.104,0.009-0.205,0.031-0.312,0.031c-1.896,0-3.438-1.541-3.438-3.437c0-1.895,1.543-3.429,3.438-3.429
				c1.895,0,3.438,1.534,3.438,3.429c0,0.334-0.062,0.651-0.153,0.957L19.143,5.96z M5.464,9.658c-1.515,0-2.742-1.229-2.742-2.742
				S3.95,4.173,5.464,4.173c1.516,0,2.739,1.23,2.739,2.743C8.203,8.43,6.978,9.658,5.464,9.658z"/>
		</g>
		<g>
			<path d="M21.909,9.658l-4.111,2.738c0-0.832-0.375-1.562-0.963-2.07c0.896-0.537,1.601-1.355,1.992-2.334
				l-3.693,3.043c0.72,0.04,1.293,0.635,1.293,1.361v5.481c0,0.762-0.612,1.375-1.368,1.375H5.155l-1.594,1.312
				c0.172,0.034,0.348,0.054,0.53,0.054h10.967c1.515,0,2.737-1.227,2.737-2.742v-0.684l4.109,3.426
				c0.764,0,1.369-0.609,1.369-1.367v-8.225C23.277,10.267,22.668,9.658,21.909,9.658z M21.909,12.054v6.295
				c0,0.032,0,0.051,0,0.047v0.854l-4.111-3.43v-1.369c0-0.359,0-0.271,0-0.688l4.111-2.738
				C21.909,11.991,21.909,11.486,21.909,12.054z"/>
		</g>
	</g>
	<path d="M20.991,5.626L2.065,21.215c-0.334,0.275-0.406,0.73-0.168,1.021c0.245,0.296,0.705,0.312,1.039,0.033
		l18.927-15.59c0.334-0.275,0.404-0.732,0.16-1.027C21.786,5.363,21.323,5.352,20.991,5.626z"/>
</g>
</svg>
