<?xml version="1.0" encoding="utf-8"?>
<!-- Generator: Adobe Illustrator 15.0.0, SVG Export Plug-In . SVG Version: 6.00 Build 0)  -->
<!DOCTYPE svg PUBLIC "-//W3C//DTD SVG 1.1 Basic//EN" "http://www.w3.org/Graphics/SVG/1.1/DTD/svg11-basic.dtd">
<svg version="1.1" baseProfile="basic" id="camera"
	 xmlns="http://www.w3.org/2000/svg" xmlns:xlink="http://www.w3.org/1999/xlink" x="0px" y="0px" width="21.938px"
	 height="21.938px" viewBox="1.024 -0.344 21.938 21.938" xml:space="preserve">
<g>
	<path d="M21.589,8.783l-4.111,2.738c0-0.832-0.375-1.562-0.963-2.07c1.394-0.837,2.336-2.351,2.336-4.098
		c0-2.649-2.146-4.795-4.799-4.795S9.258,2.704,9.258,5.353c0,1.351,0.553,2.559,1.446,3.43H8.185
		c0.656-0.731,1.07-1.683,1.07-2.741c0-2.271-1.845-4.112-4.112-4.112c-2.274,0-4.112,1.841-4.112,4.112
		c0,1.237,0.557,2.335,1.427,3.09C1.61,9.6,1.031,10.49,1.031,11.523v5.479c0,1.518,1.224,2.742,2.739,2.742h10.967
		c1.515,0,2.736-1.227,2.736-2.742v-0.684l4.111,3.426c0.762,0,1.369-0.609,1.369-1.367v-8.225
		C22.957,9.392,22.349,8.783,21.589,8.783z M2.401,6.042c0-1.514,1.228-2.743,2.742-2.743c1.516,0,2.739,1.229,2.739,2.743
		S6.658,8.783,5.143,8.783C3.629,8.783,2.401,7.554,2.401,6.042z M16.104,17.004c0,0.762-0.611,1.375-1.367,1.375H3.77
		c-0.756,0-1.369-0.613-1.369-1.375v-5.48c0-0.754,0.614-1.371,1.369-1.371h10.967c0.756,0,1.367,0.617,1.367,1.369V17.004z
		 M14.052,8.791c-1.896,0-3.438-1.541-3.438-3.438c0-1.895,1.543-3.429,3.438-3.429s3.438,1.534,3.438,3.429
		C17.487,7.25,15.945,8.791,14.052,8.791z M21.589,11.179v6.295c0,0.033,0,0.051,0,0.047v0.855l-4.111-3.43v-1.369
		c0-0.359,0-0.271,0-0.688l4.111-2.738C21.589,11.115,21.589,10.611,21.589,11.179z"/>
	<path d="M13.534,15.551h-2.738c-0.383,0-0.688,0.303-0.688,0.678c0,0.385,0.305,0.689,0.688,0.689h2.738
		c0.381,0,0.688-0.309,0.688-0.689C14.222,15.853,13.915,15.551,13.534,15.551z"/>
</g>
</svg>
