<?xml version="1.0" encoding="utf-8"?>
<!-- Generator: Adobe Illustrator 15.0.0, SVG Export Plug-In . SVG Version: 6.00 Build 0)  -->
<!DOCTYPE svg PUBLIC "-//W3C//DTD SVG 1.1 Basic//EN" "http://www.w3.org/Graphics/SVG/1.1/DTD/svg11-basic.dtd">
<svg version="1.1" baseProfile="basic" id="microphone" xmlns="http://www.w3.org/2000/svg" xmlns:xlink="http://www.w3.org/1999/xlink"
	 x="0px" y="0px" width="28.973px" height="41.849px" viewBox="83.711 502.324 28.973 41.849" xml:space="preserve">
<g>
	<g>
		<path d="M111.074,518.42c-0.436,0-0.813,0.159-1.132,0.478c-0.318,0.318-0.478,0.696-0.478,1.132v3.22
			c0,3.103-1.103,5.756-3.307,7.96c-2.205,2.205-4.858,3.308-7.96,3.308c-3.102,0-5.755-1.103-7.96-3.308
			c-2.205-2.204-3.307-4.857-3.307-7.96v-3.22c0-0.436-0.16-0.812-0.478-1.132c-0.319-0.318-0.696-0.478-1.132-0.478
			s-0.813,0.159-1.132,0.478c-0.318,0.319-0.478,0.696-0.478,1.132v3.22c0,3.705,1.236,6.929,3.709,9.67
			c2.473,2.742,5.529,4.313,9.167,4.715v3.32H90.15c-0.436,0-0.814,0.158-1.132,0.478c-0.319,0.318-0.478,0.695-0.478,1.132
			c0,0.436,0.159,0.812,0.478,1.132c0.318,0.318,0.695,0.478,1.132,0.478h16.096c0.436,0,0.813-0.159,1.132-0.478
			s0.478-0.696,0.478-1.132c0-0.437-0.159-0.813-0.478-1.132c-0.318-0.319-0.696-0.478-1.132-0.478h-6.438v-3.32
			c3.638-0.401,6.693-1.974,9.167-4.715c2.473-2.741,3.709-5.965,3.709-9.67v-3.22c0-0.436-0.16-0.812-0.478-1.132
			C111.887,518.579,111.51,518.42,111.074,518.42z"/>
		<path d="M94.405,517.993H90.15v2.952h4.255c0.65,0,1.176,0.526,1.176,1.176c0,0.65-0.526,1.177-1.176,1.177h-4.252
			c0.012,2.192,0.798,4.071,2.362,5.635c1.576,1.577,3.471,2.363,5.684,2.363c2.213,0,4.108-0.786,5.684-2.363
			c1.563-1.563,2.35-3.442,2.362-5.635h-4.104c-0.65,0-1.177-0.526-1.177-1.177c0-0.649,0.527-1.176,1.177-1.176h4.106v-2.952
			h-4.106c-0.65,0-1.177-0.527-1.177-1.177c0-0.65,0.527-1.177,1.177-1.177h4.106v-3.138h-4.106c-0.65,0-1.177-0.526-1.177-1.176
			c0-0.65,0.527-1.177,1.177-1.177h4.097c-0.052-2.116-0.832-3.938-2.354-5.462c-1.577-1.575-3.471-2.363-5.685-2.363
			s-4.108,0.788-5.684,2.363c-1.522,1.523-2.302,3.345-2.354,5.462h4.245c0.65,0,1.177,0.526,1.177,1.177
			c0,0.649-0.526,1.176-1.177,1.176h-4.254v3.138h4.254c0.65,0,1.177,0.526,1.177,1.177S95.054,517.993,94.405,517.993z"/>
	</g>
</g>
</svg>
