<?xml version="1.0" encoding="utf-8"?>
<!-- Generator: Adobe Illustrator 15.0.0, SVG Export Plug-In . SVG Version: 6.00 Build 0)  -->
<!DOCTYPE svg PUBLIC "-//W3C//DTD SVG 1.1 Basic//EN" "http://www.w3.org/Graphics/SVG/1.1/DTD/svg11-basic.dtd">
<svg version="1.1" baseProfile="basic" id="microphone-slash" xmlns="http://www.w3.org/2000/svg" xmlns:xlink="http://www.w3.org/1999/xlink"
	 x="0px" y="0px" width="28.973px" height="41.849px" viewBox="83.711 502.324 28.973 41.849" xml:space="preserve">
<path d="M110.335,512.408l-25.808,21.192c-0.334,0.275-1.314,1.275-0.501,2.192c0.708,0.75,1.829-0.029,2.163-0.308
	l25.809-21.192c0.334-0.275,1.069-0.874,0.444-1.957C111.649,511.336,110.667,512.135,110.335,512.408z"/>
<g>
	<path d="M88.253,528.591c-0.88-1.602-1.323-3.382-1.323-5.342v-3.22c0-0.436-0.16-0.812-0.478-1.132
		c-0.319-0.318-0.696-0.478-1.132-0.478s-0.813,0.159-1.132,0.478c-0.318,0.319-0.478,0.696-0.478,1.132v3.22
		c0,2.732,0.678,5.201,2.023,7.41L88.253,528.591z"/>
	<path d="M112.206,518.897c-0.319-0.318-0.696-0.478-1.132-0.478s-0.813,0.159-1.132,0.478c-0.318,0.318-0.478,0.696-0.478,1.132
		v3.22c0,3.103-1.103,5.756-3.307,7.96c-2.205,2.205-4.858,3.308-7.96,3.308c-3.102,0-5.755-1.103-7.96-3.308
		c-0.417-0.416-0.781-0.854-1.119-1.303l-2.496,2.05c0.251,0.327,0.514,0.648,0.797,0.963c2.473,2.742,5.529,4.313,9.167,4.715v3.32
		H90.15c-0.436,0-0.814,0.158-1.132,0.478c-0.319,0.318-0.478,0.695-0.478,1.132c0,0.436,0.159,0.812,0.478,1.132
		c0.318,0.318,0.695,0.478,1.132,0.478h16.096c0.436,0,0.813-0.159,1.132-0.478s0.478-0.696,0.478-1.132
		c0-0.437-0.159-0.813-0.478-1.132c-0.318-0.319-0.696-0.478-1.132-0.478h-6.438v-3.32c3.638-0.401,6.693-1.974,9.167-4.715
		c2.473-2.741,3.709-5.965,3.709-9.67v-3.22C112.684,519.594,112.525,519.217,112.206,518.897z"/>
</g>
<g>
	<path d="M95.581,522.121c0,0.65-0.526,1.177-1.176,1.177h-4.252c0.006,1.185,0.247,2.274,0.706,3.276l10.68-8.771
		c-0.338-0.206-0.576-0.562-0.576-0.987c0-0.65,0.527-1.177,1.177-1.177h2.035l2.072-1.701v-1.437h-4.106
		c-0.65,0-1.177-0.526-1.177-1.176c0-0.65,0.527-1.177,1.177-1.177h4.097c-0.052-2.116-0.832-3.938-2.354-5.462
		c-1.577-1.575-3.471-2.363-5.685-2.363s-4.108,0.788-5.684,2.363c-1.522,1.523-2.302,3.345-2.354,5.462h4.245
		c0.65,0,1.177,0.526,1.177,1.177c0,0.649-0.526,1.176-1.177,1.176h-4.254v3.138h4.254c0.65,0,1.177,0.526,1.177,1.177
		s-0.527,1.177-1.177,1.177H90.15v2.952h4.255C95.054,520.945,95.581,521.472,95.581,522.121z"/>
	<path d="M91.892,528.237c0.193,0.237,0.397,0.471,0.622,0.695c1.576,1.577,3.471,2.363,5.684,2.363
		c2.213,0,4.108-0.786,5.684-2.363c1.563-1.563,2.35-3.442,2.362-5.635h-4.104c-0.65,0-1.177-0.526-1.177-1.177
		c0-0.649,0.527-1.176,1.177-1.176h4.106v-2.952h-1.879L91.892,528.237z"/>
</g>
</svg>
