<?xml version="1.0" encoding="utf-8"?>
<!-- Generator: Adobe Illustrator 15.0.0, SVG Export Plug-In  -->
<!DOCTYPE svg PUBLIC "-//W3C//DTD SVG 1.1 Basic//EN" "http://www.w3.org/Graphics/SVG/1.1/DTD/svg11-basic.dtd">
<svg version="1.1" baseProfile="basic"
	 xmlns="http://www.w3.org/2000/svg" xmlns:xlink="http://www.w3.org/1999/xlink" xmlns:a="http://ns.adobe.com/AdobeSVGViewerExtensions/3.0/"
	 x="0px" y="0px" width="34px" height="34px" viewBox="0 0 34 34" overflow="visible" enable-background="new 0 0 34 34"
	 xml:space="preserve">
<defs>
</defs>
<path d="M23.875,4.091c-5.454-5.455-14.33-5.455-19.784,0c-5.454,5.454-5.454,14.329,0,19.784
	c5.268,5.268,13.725,5.447,19.211,0.541l1.108,1.109c-0.275,0.707-0.131,1.539,0.439,2.109l5.853,5.854
	c0.769,0.77,2.017,0.77,2.786,0s0.77-2.017,0-2.786l-5.852-5.852c-0.571-0.571-1.405-0.716-2.111-0.439l-1.109-1.11
	C29.322,17.815,29.143,9.358,23.875,4.091z M5.763,22.203c-4.532-4.532-4.532-11.907,0-16.439c4.532-4.534,11.907-4.533,16.44,0
	c4.533,4.532,4.533,11.908,0,16.44S10.295,26.736,5.763,22.203z"/>
<path d="M8.524,8.423c1.979-1.98,4.281-3.417,6.7-4.313c-2.741-0.156-5.677,0.911-7.93,3.163
	c-2.284,2.284-3.348,5.271-3.153,8.045C5.031,12.827,6.492,10.456,8.524,8.423z"/>
</svg>
