<svg width="14px" height="19px" viewBox="0 0 14 19" version="1.1" xmlns="http://www.w3.org/2000/svg" xmlns:xlink="http://www.w3.org/1999/xlink" xmlns:sketch="http://www.bohemiancoding.com/sketch/ns">
    <!-- Generator: Sketch 3.4.3 (16044) - http://www.bohemiancoding.com/sketch -->
    <title>Notes</title>
    <desc>Created with Sketch.</desc>
    <defs></defs>
    <g id="Assets" stroke="none" stroke-width="1" fill="none" fill-rule="evenodd" sketch:type="MSPage">
        <g id="Sidebar-Icons" sketch:type="MSLayerGroup" transform="translate(-146.000000, -3.000000)">
            <g id="Notes" transform="translate(141.000000, 0.000000)" sketch:type="MSShapeGroup">
                <path d="M0,0.024 L24,0.024 L24,24.024 L0,24.024 L0,0.024 L0,0.024 Z" class="bounds"></path>
                <path d="M15.7692308,7.524 C15.1747692,7.524 14.6923077,7.02 14.6923077,6.399 L14.6923077,4.149 L17.9230769,7.524 L15.7692308,7.524 L15.7692308,7.524 Z M15.2307692,13.149 L8.76923077,13.149 C8.472,13.149 8.23076923,12.8975625 8.23076923,12.5865 C8.23076923,12.276 8.472,12.024 8.76923077,12.024 L15.2307692,12.024 C15.528,12.024 15.7692308,12.276 15.7692308,12.5865 C15.7692308,12.8975625 15.528,13.149 15.2307692,13.149 L15.2307692,13.149 L15.2307692,13.149 Z M15.2307692,16.524 L8.76923077,16.524 C8.472,16.524 8.23076923,16.2725625 8.23076923,15.9615 C8.23076923,15.6504375 8.472,15.399 8.76923077,15.399 L15.2307692,15.399 C15.528,15.399 15.7692308,15.6504375 15.7692308,15.9615 C15.7692308,16.2725625 15.528,16.524 15.2307692,16.524 L15.2307692,16.524 L15.2307692,16.524 Z M7.15384615,3.024 C5.96438462,3.024 5,4.0314375 5,5.274 L5,18.774 C5,20.0165625 5.96438462,21.024 7.15384615,21.024 L16.8461538,21.024 C18.0356154,21.024 19,20.0165625 19,18.774 L19,7.524 L14.6923077,3.03975 C14.6233846,3.03975 7.15384615,3.024 7.15384615,3.024 Z" class="shape" fill="#607D8B"></path>
            </g>
        </g>
    </g>
</svg>
