<?xml version="1.0" encoding="UTF-8" standalone="no"?>
<svg width="18px" height="20px" viewBox="0 0 18 20" version="1.1" xmlns="http://www.w3.org/2000/svg" xmlns:xlink="http://www.w3.org/1999/xlink" xmlns:sketch="http://www.bohemiancoding.com/sketch/ns">
    <!-- Generator: Sketch 3.4.3 (16044) - http://www.bohemiancoding.com/sketch -->
    <title>Notification</title>
    <desc>Created with Sketch.</desc>
    <defs></defs>
    <g id="Assets" stroke="none" stroke-width="1" fill="none" fill-rule="evenodd" sketch:type="MSPage">
        <g id="Sidebar-Icons" sketch:type="MSLayerGroup" transform="translate(-55.000000, -2.000000)">
            <g id="Notification" transform="translate(52.000000, 0.000000)" sketch:type="MSShapeGroup">
                <path d="M0.5,0 L24.5,0 L24.5,24 L0.5,24 L0.5,0 L0.5,0 Z" class="bounds"></path>
                <path d="M12,22 C13.1,22 14,21.1 14,20 L10,20 C10,21.1 10.9,22 12,22 L12,22 L12,22 Z M18.5,16 L18.5,10.5 C18.5,7.43 16.37,4.86 13.5,4.18 L13.5,3.5 C13.5,2.67 12.83,2 12,2 C11.17,2 10.5,2.67 10.5,3.5 L10.5,4.18 C7.63,4.86 5.5,7.43 5.5,10.5 L5.5,16 L3.5,18 L3.5,19 L20.5,19 L20.5,18 L18.5,16 L18.5,16 Z" class="shape" fill="#607D8B"></path>
            </g>
        </g>
    </g>
</svg>
