<?xml version="1.0" encoding="UTF-8" standalone="no"?>
<svg width="20px" height="18px" viewBox="0 0 20 18" version="1.1" xmlns="http://www.w3.org/2000/svg" xmlns:xlink="http://www.w3.org/1999/xlink" xmlns:sketch="http://www.bohemiancoding.com/sketch/ns">
    <!-- Generator: Sketch 3.4.3 (16044) - http://www.bohemiancoding.com/sketch -->
    <title>Share Screen</title>
    <desc>Created with Sketch.</desc>
    <defs></defs>
    <g id="Assets" stroke="none" stroke-width="1" fill="none" fill-rule="evenodd" sketch:type="MSPage">
        <g id="Sidebar-Icons" sketch:type="MSLayerGroup" transform="translate(0.000000, -3.000000)" fill="#607D8B">
            <path d="M18,16.0909091 L18,7.90909091 L4.90909091,7.90909091 L4.90909091,16.0909091 L18,16.0909091 L18,16.0909091 Z M18,6.27272727 C18.9037387,6.27272727 19.6363636,7.00535223 19.6363636,7.90909091 L19.6363636,16.0909091 C19.6363636,16.9990909 18.9,17.7272727 18,17.7272727 L13.0909091,17.7272727 L13.0909091,19.3636364 L14.7272727,19.3636364 L14.7272727,21 L8.18181818,21 L8.18181818,19.3636364 L9.81818182,19.3636364 L9.81818182,17.7272727 L4.90909091,17.7272727 C4.00090909,17.7272727 3.27272727,16.9990909 3.27272727,16.0909091 L3.27272727,7.90909091 C3.27272727,7.00535223 4.00535223,6.27272727 4.90909091,6.27272727 L18,6.27272727 L18,6.27272727 Z M1.63636364,14.4545455 L0,14.4545455 L0,4.63636364 C-1.10676068e-16,3.73262495 0.732624955,3 1.63636364,3 L16.3636364,3 L16.3636364,4.63636364 L1.63636364,4.63636364 L1.63636364,14.4545455 Z" class="shape" sketch:type="MSShapeGroup"></path>
        </g>
    </g>
</svg>
